<?xml version="1.0" encoding="utf-8"?>
<!-- Generator: Adobe Illustrator 28.0.0, SVG Export Plug-In . SVG Version: 6.00 Build 0)  -->
<svg version="1.1" id="Layer_1" xmlns="http://www.w3.org/2000/svg" xmlns:xlink="http://www.w3.org/1999/xlink" x="0px" y="0px"
	 viewBox="0 0 53.46899 53.46799" style="enable-background:new 0 0 53.46899 53.46799;" xml:space="preserve">
<style type="text/css">
	.st0{opacity:0.7;fill-rule:evenodd;clip-rule:evenodd;fill:#E30613;}
	.st1{fill:#E30613;}
	.st2{fill-rule:evenodd;clip-rule:evenodd;fill:#E30613;}
	.st3{fill:#1D1D1B;}
</style>
<path class="st0" d="M4.987,0.4684h43.495C50.96701,0.4684,53,2.7144,53,5.4594v42.55c0,2.745-2.03299,4.99-4.51801,4.99H4.987
	c-2.48499,0-4.51801-2.245-4.51801-4.99v-42.55C0.46899,2.7144,2.50201,0.4684,4.987,0.4684"/>
<path class="st1" d="M48.48199,53.46799H4.987c-2.75,0-4.987-2.448-4.987-5.459V5.459C0,2.449,2.237,0,4.987,0h43.495
	c2.75,0,4.987,2.449,4.987,5.459v42.55C53.46899,51.02,51.23199,53.46799,48.48199,53.46799 M4.987,0.937
	c-2.233,0-4.04901,2.029-4.04901,4.522v42.55c0,2.493,1.81601,4.522,4.04901,4.522h43.495c2.233,0,4.04999-2.029,4.04999-4.522
	V5.459c0-2.493-1.81699-4.522-4.04999-4.522H4.987z"/>
<path class="st2" d="M28.4054,4.8282l19.98599,19.477c1.142,1.11301,1.07101,3.056-0.15799,4.317l-19.05499,19.552
	c-1.229,1.261-3.16901,1.383-4.311,0.27L4.88141,28.9662c-1.14203-1.112-1.07001-3.055,0.159-4.316l19.05399-19.552
	C25.32339,3.8372,27.2634,3.7152,28.4054,4.8282"/>
<path class="st3" d="M26.7984,49.4751c-0.78101,0-1.54001-0.277-2.11801-0.839L4.6944,29.1591
	c-1.25-1.21999-1.181-3.325,0.15399-4.69499L23.9024,4.9111c1.33499-1.37,3.44-1.494,4.69-0.275l19.98599,19.478
	c0.60699,0.591,0.92398,1.41,0.89099,2.304c-0.03299,0.884-0.40399,1.733-1.04498,2.391l-19.05402,19.552
	C28.6514,49.0991,27.71039,49.4751,26.7984,49.4751 M26.4744,4.3321c-0.771,0-1.57401,0.323-2.18799,0.953L5.23239,24.8371
	c-1.129,1.159-1.203,2.925-0.164,3.938l19.98599,19.477c1.04001,1.012,2.80402,0.893,3.93201-0.265l19.05402-19.552
	c0.54898-0.562,0.866-1.285,0.89301-2.03699c0.02698-0.741-0.23102-1.416-0.72803-1.9l-19.987-19.478
	C27.74438,4.5581,27.12039,4.3321,26.4744,4.3321"/>
<path class="st3" d="M23.01923,10.67632h0.85101v2.21497c0,0.50702-0.02203,0.86401-0.06903,1.07404
	c-0.04596,0.20898-0.13,0.38495-0.25397,0.52899c-0.12402,0.14301-0.29004,0.258-0.49603,0.34296
	c-0.20697,0.086-0.47797,0.12805-0.81201,0.12805c-0.40295,0-0.70795-0.04602-0.91595-0.13904
	c-0.20801-0.09399-0.37201-0.21399-0.49304-0.36298c-0.12097-0.14801-0.19995-0.30402-0.23895-0.46704
	c-0.05603-0.24097-0.08301-0.59796-0.08301-1.06995v-2.25h0.85101v2.284c0,0.362,0.01099,0.59796,0.03198,0.70496
	c0.03601,0.17303,0.12299,0.31104,0.26001,0.41602c0.13696,0.10498,0.32495,0.15698,0.56299,0.15698
	c0.24097,0,0.42401-0.04999,0.547-0.14899c0.12201-0.09796,0.19598-0.21997,0.22101-0.36298
	c0.02496-0.14404,0.03699-0.383,0.03699-0.71704V10.67632z M26.3017,14.25011c-0.25897,0-0.46497-0.06604-0.617-0.19604
	c-0.15295-0.12994-0.25397-0.33496-0.30298-0.61395l-0.82898,0.08197c0.05499,0.47101,0.22601,0.83099,0.51196,1.07703
	c0.28503,0.24701,0.69501,0.36896,1.22803,0.36896c0.36597,0,0.67297-0.05096,0.91797-0.15399
	c0.24603-0.10199,0.435-0.25897,0.57001-0.46997c0.13403-0.21002,0.20099-0.43701,0.20099-0.67902
	c0-0.26599-0.05597-0.48999-0.16797-0.67102c-0.11298-0.18195-0.26801-0.32397-0.466-0.42896
	c-0.19897-0.10504-0.505-0.20599-0.91901-0.30402c-0.41498-0.09698-0.67596-0.19098-0.78302-0.28198
	c-0.08398-0.07001-0.12695-0.15601-0.12695-0.25604c0-0.10895,0.04498-0.19598,0.13599-0.26099
	c0.13898-0.10199,0.33398-0.15198,0.58099-0.15198c0.23999,0,0.41901,0.047,0.539,0.14197
	c0.12,0.09399,0.19897,0.25,0.23499,0.46704l0.85101-0.03705c-0.013-0.388-0.15399-0.69696-0.42102-0.92999
	c-0.26801-0.23199-0.66595-0.34698-1.19598-0.34698c-0.32397,0-0.59998,0.04901-0.83002,0.146
	c-0.229,0.09802-0.40399,0.23999-0.526,0.427c-0.12195,0.18799-0.18298,0.388-0.18298,0.60303c0,0.33398,0.13,0.617,0.38898,0.84796
	c0.18402,0.16504,0.50403,0.30499,0.96106,0.41803c0.35394,0.08801,0.58197,0.14899,0.68097,0.18396
	c0.146,0.05103,0.24799,0.112,0.30603,0.18304c0.05896,0.07001,0.08899,0.15399,0.08899,0.25397
	c0,0.15503-0.07001,0.29102-0.20905,0.40704C26.78271,14.19207,26.57574,14.25011,26.3017,14.25011z M29.56042,13.61877
	l0.69202-0.70496l1.15796,1.97998h1.10205l-1.67401-2.57501l1.58801-1.64197h-1.14502l-1.72101,1.87201v-1.87201h-0.85101v4.21698
	h0.85101V13.61877z M26.27643,18.48437H25.7674c-0.013-0.034-0.02997-0.08496-0.04895-0.15198
	c-0.008-0.03101-0.01501-0.04999-0.01801-0.06c-0.08801,0.08502-0.18201,0.14899-0.28204,0.19202
	c-0.09998,0.04199-0.20697,0.06396-0.32098,0.06396c-0.20001,0-0.35797-0.05499-0.47296-0.16296
	c-0.11505-0.10901-0.17303-0.24603-0.17303-0.41199c0-0.11005,0.026-0.20801,0.07898-0.29401
	c0.052-0.086,0.12604-0.15204,0.22003-0.19702c0.09497-0.04602,0.23199-0.086,0.40997-0.12
	c0.23999-0.04498,0.40704-0.08801,0.49902-0.12701v-0.05096c0-0.099-0.02399-0.16901-0.073-0.211
	c-0.04901-0.04205-0.14099-0.06403-0.276-0.06403c-0.09198,0-0.16302,0.01801-0.21503,0.05499
	c-0.05096,0.03503-0.09198,0.09802-0.12396,0.18903l-0.46704-0.08405c0.05304-0.18896,0.14301-0.32697,0.271-0.41797
	c0.12805-0.09003,0.31805-0.13501,0.57104-0.13501c0.22998,0,0.401,0.02698,0.513,0.08099
	c0.112,0.05499,0.19098,0.12402,0.237,0.20703c0.04498,0.08398,0.06897,0.237,0.06897,0.461l-0.00598,0.59998
	c0,0.17102,0.008,0.297,0.02502,0.37799C26.20044,18.30437,26.23145,18.39141,26.27643,18.48437z M25.65942,17.55041
	c-0.06598,0.02197-0.16998,0.04797-0.31299,0.07898c-0.14203,0.03101-0.23602,0.06104-0.28003,0.08899
	c-0.06696,0.04901-0.10101,0.10901-0.10101,0.18201c0,0.07202,0.02704,0.13403,0.08105,0.18604
	c0.05396,0.05298,0.12195,0.07898,0.20496,0.07898c0.09302,0,0.18103-0.03003,0.26599-0.091
	c0.06201-0.04602,0.10303-0.10303,0.12201-0.17102c0.01404-0.04297,0.02002-0.12695,0.02002-0.25V17.55041z M27.72839,16.49639
	c0.237,0,0.43201,0.086,0.58801,0.25702c0.15503,0.17096,0.23199,0.41797,0.23199,0.73901c0,0.33197-0.07898,0.58795-0.237,0.76697
	s-0.34998,0.26898-0.57599,0.26898c-0.11102,0-0.22003-0.02795-0.328-0.08301c-0.10803-0.05597-0.20099-0.138-0.28003-0.24695
	v0.28595h-0.47699v-2.68396h0.51404v0.96698C27.32343,16.58642,27.51038,16.49639,27.72839,16.49639z M27.90039,17.03741
	c-0.07996-0.09802-0.18298-0.14801-0.31-0.14801c-0.12299,0-0.22498,0.04797-0.30701,0.14398
	c-0.08197,0.09601-0.12299,0.24103-0.12299,0.43701c0,0.20099,0.03198,0.34998,0.09503,0.44702
	c0.08997,0.13599,0.20795,0.20496,0.35596,0.20496c0.11304,0,0.21002-0.04895,0.29004-0.146c0.07996-0.09698,0.12-0.25,0.12-0.45898
	C28.02142,17.2954,27.98041,17.13537,27.90039,17.03741z M19.15881,24.4464c-0.90002,0.70001-1.73499,1.17499-2.49902,1.42499
	v2.66699c1.45703-0.47797,2.72101-1.22101,3.79504-2.22797v11.07996h2.93896V21.99041h-2.38501
	C20.67682,22.92541,20.05884,23.7434,19.15881,24.4464z M36.3421,32.88018c0,1.41803-0.44995,2.56799-1.35297,3.453
	c-0.90399,0.88605-2.10303,1.328-3.60303,1.328c-1.396,0-2.55701-0.36401-3.48499-1.09601
	c-1.09601-0.867-1.64301-2.05298-1.64301-3.56c0-0.828,0.20703-1.58795,0.61798-2.28497
	c0.41101-0.69202,1.06104-1.22803,1.94604-1.60303c-0.76001-0.32098-1.31403-0.76398-1.65704-1.32495
	c-0.34595-0.56006-0.51697-1.17804-0.51697-1.84601c0-1.14203,0.396-2.08905,1.19598-2.83502s1.935-1.12097,3.40601-1.12097
	c1.45703,0,2.58899,0.375,3.39203,1.12097c0.80701,0.74597,1.211,1.69299,1.211,2.83502c0,0.711-0.18604,1.34296-0.55701,1.89996
	c-0.36804,0.55304-0.88904,0.97803-1.55701,1.271c0.84998,0.33899,1.49597,0.83899,1.93896,1.49603
	C36.12115,31.2672,36.3421,32.02422,36.3421,32.88018z M29.42914,26.15722c0,0.586,0.164,1.04297,0.49597,1.367
	c0.33301,0.32898,0.77203,0.49298,1.32501,0.49298c0.55701,0,1.00299-0.164,1.33899-0.49603c0.33203-0.33197,0.5-0.789,0.5-1.375
	c0-0.55298-0.164-0.99298-0.49597-1.32495c-0.33203-0.33203-0.76801-0.49603-1.31403-0.49603c-0.565,0-1.01398,0.16803-1.34998,0.5
	C29.59711,25.16119,29.42914,25.6032,29.42914,26.15722z M33.43512,32.75622c0-0.71802-0.203-1.297-0.60699-1.73199
	c-0.40302-0.43604-0.91699-0.65405-1.539-0.65405c-0.71698,0-1.25299,0.25-1.60297,0.74304
	c-0.35303,0.49597-0.52802,1.03198-0.52802,1.60999c0,0.81097,0.20697,1.44299,0.62097,1.896
	c0.414,0.45398,0.93201,0.67902,1.55304,0.67902c0.60699,0,1.11096-0.21802,1.50696-0.65399
	C33.23511,34.20922,33.43512,33.58019,33.43512,32.75622z"/>
</svg>
