<?xml version="1.0" encoding="utf-8"?>
<!-- Generator: Adobe Illustrator 27.8.1, SVG Export Plug-In . SVG Version: 6.00 Build 0)  -->
<svg version="1.1" id="Layer_1" xmlns="http://www.w3.org/2000/svg" xmlns:xlink="http://www.w3.org/1999/xlink" x="0px" y="0px"
	 viewBox="0 0 95.028801 45.354" style="enable-background:new 0 0 95.028801 45.354;" xml:space="preserve">
<style type="text/css">
	.st0{fill:#FFFFFF;}
	.st1{fill:#010101;}
</style>
<g>
	<rect class="st0" width="95.028801" height="45.354"/>
	<polyline points="94.422295,0.4869 94.422295,44.869701 0.5464,44.869701 0.5464,0.4869 94.422295,0.4869 	"/>
	<rect x="1.9165" y="2.064" class="st0" width="26.191399" height="7.3594"/>
	<rect x="1.9048" y="11.0288" class="st0" width="26.205999" height="27.054701"/>
	<g>
		<polygon class="st0" points="1.909607,43.2691 1.909607,39.6763 7.1709,39.6763 7.1709,40.517101 4.0234,40.517101 
			4.0234,41.0308 6.6875,41.0308 6.6875,41.868698 4.0234,41.868698 4.0234,42.431198 7.2934,42.431198 7.2934,43.2691 		"/>
		<path class="st0" d="M11.763607,40.723202C11.73,40.6021,11.6123,40.522999,11.458,40.48
			c-0.1499-0.045898-0.336393-0.066399-0.545394-0.066399c-0.465406,0-0.673407,0.075199-0.673407,0.209
			c0,0.5312,3.7105,0.1982,3.7105,1.504898c0,0.832001-1.2476,1.2383-3.0196,1.2383c-1.7026,0-2.812492-0.553799-2.8574-1.202198
			h2.023907c0.045493,0.128899,0.170894,0.221699,0.350594,0.2822c0.17,0.059601,0.3916,0.0909,0.6016,0.0909
			c0.527807,0,0.8794-0.0938,0.8794-0.263702c0-0.543999-3.7124-0.170898-3.7124-1.5401c0-0.763599,1.183101-1.1455,2.796901-1.1455
			c1.79,0,2.6064,0.506901,2.760699,1.135803H11.763607z"/>
		<path class="st0" d="M17.114199,41.234901h0.8316c0.653809,0,1.0049-0.095703,1.0049-0.3428
			c0-0.252903-0.358-0.375-0.851091-0.375h-0.985409V41.234901z M17.114199,42.017101V43.2691H15.0005v-3.5928H18.0473
			c2.147499,0,2.856499,0.329102,2.856499,1.027401c0,0.414997-0.330099,0.759701-1.083,0.880798
			c0.679701,0.1367,1.092701,0.221699,1.092701,0.946301c0,0.466801-0.0273,0.629902,0.2232,0.629902V43.2691h-2.142601
			c-0.0532-0.080101-0.1059-0.309601-0.1059-0.627899c0-0.471703-0.143593-0.6241-1.1285-0.6241H17.114199z"/>
		<path class="st0" d="M24.315399,40.517101v0.601597h0.880899c0.421309,0,0.727001-0.108398,0.727001-0.314499
			c0-0.2812-0.4165-0.287098-0.8608-0.287098H24.315399z M24.315399,41.7691v0.662098h0.9224
			c0.523901,0,0.917-0.061497,0.917-0.329098c0-0.313499-0.491299-0.333-1.167-0.333H24.315399z M22.2031,43.2691v-3.5928h3.083506
			c1.452093,0,2.607893,0.195301,2.607893,0.9063c0,0.371101-0.431599,0.640602-0.8423,0.780201
			c0.697802,0.100601,1.0718,0.4375,1.0718,0.8223c0,0.8008-1.098598,1.084-2.777391,1.084H22.2031z"/>
	</g>
	<g>
		<rect x="29.702099" y="2.0542" class="st0" width="63.159698" height="41.221699"/>
	</g>
	<g>
		<polygon points="2.850607,17.7281 10.8877,15.5611 15.470699,26.356001 15.5097,26.3423 14.1264,14.6939 22.163099,12.5318 
			27.177198,31.3794 22.279799,32.691898 18.6933,19.2183 18.6548,19.2339 20.1733,33.257401 14.872999,34.688 9.222099,21.773001 
			9.181606,21.7847 12.7612,35.257401 7.8657,36.5728 		"/>
	</g>
	<g>
		<path d="M2.6157,7.8233V3.6558h1.1831l0.5513,2.834h0.0092l0.5845-2.834h1.1445v4.1675H5.3725V4.6079H5.3628L4.686,7.8233H3.9848
			L3.3413,4.6079H3.332v3.2154H2.6157z"/>
		<path d="M6.4199,7.8233l0.9736-4.1675h0.9693l0.9546,4.1675H8.5425L8.348607,6.8999H7.3442L7.1455,7.8233H6.4199z M7.8374,4.4585
			H7.8261L7.4907,6.2593h0.7017L7.8374,4.4585z"/>
		<path d="M11.4643,3.6558v0.6929H10.646v3.4746H9.910606V4.3487H9.0927V3.6558H11.4643z"/>
		<path d="M14.181606,3.6558v2.9556c0,0.1572-0.019506,0.313-0.061,0.4648C14.08,7.2281,14.014606,7.3638,13.9218,7.4859
			c-0.0927,0.1211-0.2153,0.2197-0.3681,0.2944c-0.1519,0.0752-0.3413,0.1123-0.565,0.1123c-0.4052,0-0.707-0.1152-0.902801-0.3462
			c-0.196799-0.23-0.2949-0.542-0.2949-0.935V3.6558h0.7353v2.8979c0,0.2579,0.041101,0.4415,0.1241,0.5508
			C12.7329,7.2139,12.8427,7.2696,12.979,7.2696c0.1621,0,0.281199-0.0616,0.355-0.1841c0.075607-0.124,0.1127-0.3008,0.1127-0.5318
			V3.6558H14.181606z"/>
		<path d="M15.5014,7.8233h-0.735793V3.6558h1.358392c0.253901,0,0.454102,0.0937,0.603001,0.2778
			c0.1465,0.1841,0.221701,0.4556,0.221701,0.813c0,0.2666-0.0508,0.4912-0.1499,0.6758
			c-0.0986,0.1846-0.2661,0.3003-0.502899,0.3462v0.0122c0.039,0.0073,0.093706,0.019,0.165998,0.0347
			C16.5327,5.8301,16.6035,5.8648,16.6733,5.9185c0.069307,0.0542,0.1304,0.1338,0.1821,0.2402
			c0.052799,0.1055,0.078207,0.2525,0.078207,0.4409c0,0.066,0.000893,0.1578,0.002892,0.2769
			C16.938,6.9966,16.9419,7.1197,16.9487,7.2466c0.0063,0.1265,0.014599,0.2442,0.026907,0.3516
			C16.9863,7.7061,17,7.7808,17.0161,7.8233h-0.7202C16.247,7.6973,16.221607,7.564,16.2202,7.4253
			C16.217699,7.2867,16.2173,7.1499,16.2173,7.0152c0-0.1231-0.001001-0.2403-0.002501-0.3516
			c-0.0005-0.1123-0.017099-0.209-0.0473-0.292c-0.0308-0.0825-0.0835-0.1484-0.1563-0.1987
			c-0.0732-0.0498-0.1797-0.0762-0.3188-0.0762h-0.191V7.8233z M15.5014,5.4571h0.327207
			c0.070793,0,0.131293-0.0191,0.180194-0.0576c0.047806-0.0386,0.086399-0.0884,0.115198-0.147
			c0.0312-0.0591,0.0513-0.1265,0.0625-0.1997c0.011202-0.0728,0.017109-0.1421,0.017109-0.208
			c0-0.1993-0.033209-0.3409-0.100107-0.4239c-0.0674-0.0825-0.158701-0.1235-0.274894-0.1235H15.5014V5.4571z"/>
		<path d="M17.488699,7.8233V3.6558H19.4067v0.6416h-1.182093v1.0278H19.3144v0.6402h-1.089792v1.2173h1.221191v0.6406H17.488699z"
			/>
		<path d="M20.9375,4.2823c0.122499-0.084,0.241199-0.1778,0.3554-0.2828c0.1133-0.1035,0.2129-0.2255,0.300798-0.3657h0.652401
			v4.1895h-0.735901V4.5996c-0.086399,0.0928-0.178699,0.1768-0.2759,0.253C21.1367,4.9278,21.038099,5,20.9375,5.0684V4.2823z"/>
		<path d="M24.8379,4.4322l-0.829102,3.3911h-0.764193l0.930693-3.541h-1.1651V3.6338H24.8379V4.4322z"/>
		<path d="M25.971607,4.4644h0.541592v1.1382H27.3354v0.6396h-0.822201v1.1372h-0.541592V6.2422h-0.828108V5.6026h0.828108V4.4644z"
			/>
	</g>
</g>
<g>
	<path class="st1" d="M33.487991,9.423392V4.984916h1.665039c0.338867,0,0.61084,0.044922,0.815918,0.134766
		c0.20459,0.089844,0.365234,0.228516,0.481445,0.415039c0.115723,0.186523,0.173828,0.381836,0.173828,0.585938
		c0,0.189453-0.05127,0.368164-0.154297,0.536133c-0.103027,0.166992-0.258301,0.302734-0.466309,0.405273
		c0.268555,0.079102,0.475098,0.212891,0.619141,0.402344c0.144531,0.19043,0.216309,0.414062,0.216309,0.671875
		c0,0.208008-0.043457,0.401367-0.131348,0.580078s-0.196289,0.316406-0.325684,0.413086
		c-0.128906,0.09668-0.291016,0.169922-0.48584,0.219727s-0.433594,0.074219-0.71582,0.074219H33.487991z M34.075394,6.85015
		h0.959473c0.260254,0,0.447266-0.017578,0.560059-0.051758c0.149414-0.043945,0.262207-0.118164,0.337402-0.220703
		c0.076172-0.102539,0.11377-0.232422,0.11377-0.387695c0-0.147461-0.035156-0.276367-0.105957-0.388672
		s-0.171387-0.188477-0.302734-0.230469C35.506058,5.529838,35.28096,5.50933,34.962112,5.50933h-0.886719V6.85015z
		 M34.075394,8.899955h1.10498c0.189453,0,0.322754-0.007812,0.399414-0.021484
		c0.135254-0.024414,0.248535-0.064453,0.339355-0.121094s0.165039-0.138672,0.223633-0.24707
		c0.058594-0.107422,0.087891-0.232422,0.087891-0.374023c0-0.165039-0.04248-0.308594-0.126953-0.430664
		c-0.084961-0.12207-0.202637-0.208008-0.353027-0.257812c-0.149902-0.048828-0.366699-0.074219-0.648926-0.074219h-1.026367
		V8.899955z"/>
	<path class="st1" d="M37.565628,9.423392V4.984916h0.544922v4.438477H37.565628z"/>
	<path class="st1" d="M38.75264,7.81597c0-0.595703,0.165039-1.036133,0.496094-1.323242
		c0.276855-0.238281,0.61377-0.357422,1.01123-0.357422c0.441895,0,0.803223,0.145508,1.083984,0.43457
		c0.280273,0.290039,0.420898,0.69043,0.420898,1.200195c0,0.414062-0.062012,0.739258-0.186523,0.976562
		c-0.124023,0.237305-0.304688,0.421875-0.541504,0.552734c-0.237305,0.130859-0.496094,0.196289-0.776855,0.196289
		c-0.450195,0-0.813965-0.143555-1.091309-0.432617C38.891312,8.774955,38.75264,8.358939,38.75264,7.81597z M39.312698,7.81597
		c0,0.412109,0.089355,0.719727,0.269043,0.924805s0.405762,0.307617,0.678223,0.307617
		c0.270508,0,0.495605-0.103516,0.675293-0.30957c0.179688-0.205078,0.269531-0.519531,0.269531-0.941406
		c0-0.397461-0.090332-0.698242-0.270996-0.90332s-0.405273-0.307617-0.673828-0.307617
		c-0.272461,0-0.498535,0.102539-0.678223,0.305664C39.402054,7.096244,39.312698,7.403861,39.312698,7.81597z"/>
	<path class="st1" d="M42.200882,7.81597c0-0.595703,0.165039-1.036133,0.496094-1.323242
		c0.276855-0.238281,0.61377-0.357422,1.01123-0.357422c0.441895,0,0.803223,0.145508,1.083984,0.43457
		c0.280273,0.290039,0.420898,0.69043,0.420898,1.200195c0,0.414062-0.062012,0.739258-0.186523,0.976562
		c-0.124023,0.237305-0.304688,0.421875-0.541504,0.552734c-0.237305,0.130859-0.496094,0.196289-0.776855,0.196289
		c-0.450195,0-0.813965-0.143555-1.091309-0.432617C42.339554,8.774955,42.200882,8.358939,42.200882,7.81597z M42.760941,7.81597
		c0,0.412109,0.089355,0.719727,0.269043,0.924805s0.405762,0.307617,0.678223,0.307617
		c0.270508,0,0.495605-0.103516,0.675293-0.30957c0.179688-0.205078,0.269531-0.519531,0.269531-0.941406
		c0-0.397461-0.090332-0.698242-0.270996-0.90332s-0.405273-0.307617-0.673828-0.307617
		c-0.272461,0-0.498535,0.102539-0.678223,0.305664C42.850296,7.096244,42.760941,7.403861,42.760941,7.81597z"/>
	<path class="st1" d="M47.938187,9.423392V9.018119c-0.204102,0.318359-0.503906,0.477539-0.899414,0.477539
		c-0.256836,0-0.492188-0.070312-0.707031-0.211914c-0.214844-0.140625-0.381836-0.337891-0.499512-0.591797
		c-0.118164-0.25293-0.177246-0.543945-0.177246-0.873047c0-0.321289,0.053223-0.612305,0.160645-0.873047
		c0.106934-0.261719,0.26709-0.461914,0.480957-0.601562c0.213867-0.138672,0.453125-0.208984,0.717773-0.208984
		c0.194336,0,0.366211,0.041016,0.517578,0.123047s0.274414,0.188477,0.369141,0.319336V4.984916h0.541992v4.438477H47.938187z
		 M46.215042,7.8189c0,0.412109,0.086914,0.719727,0.260254,0.922852c0.173828,0.204102,0.378906,0.306641,0.615234,0.306641
		c0.237305,0,0.44043-0.097656,0.606445-0.292969c0.166992-0.194336,0.25-0.491211,0.25-0.890625
		c0-0.44043-0.084961-0.763672-0.253906-0.96875c-0.169922-0.206055-0.378906-0.30957-0.626953-0.30957
		c-0.242188,0-0.444824,0.099609-0.607422,0.296875C46.296097,7.081595,46.215042,7.393119,46.215042,7.8189z"/>
	<path class="st1" d="M53.120804,9.026908c-0.202148,0.171875-0.396484,0.292969-0.583008,0.363281
		s-0.387695,0.105469-0.601562,0.105469c-0.352539,0-0.624023-0.085938-0.813477-0.258789
		c-0.19043-0.171875-0.285156-0.392578-0.285156-0.661133c0-0.157227,0.036133-0.300781,0.107422-0.431641
		c0.072266-0.129883,0.166016-0.234375,0.282227-0.313477c0.115234-0.078125,0.246094-0.137695,0.391602-0.178711
		c0.106445-0.027344,0.268555-0.054688,0.484375-0.081055c0.439453-0.052734,0.763672-0.115234,0.97168-0.1875
		c0.001953-0.075195,0.00293-0.12207,0.00293-0.142578c0-0.22168-0.051758-0.378906-0.154297-0.469727
		c-0.139648-0.123047-0.345703-0.18457-0.620117-0.18457c-0.256836,0-0.446289,0.044922-0.568359,0.134766
		s-0.211914,0.249023-0.270508,0.477539l-0.533203-0.073242c0.048828-0.227539,0.12793-0.412109,0.239258-0.552734
		c0.111328-0.139648,0.271484-0.248047,0.481445-0.323242c0.209961-0.076172,0.453125-0.114258,0.729492-0.114258
		c0.274414,0,0.498047,0.032227,0.668945,0.097656c0.171875,0.064453,0.297852,0.145508,0.378906,0.243164
		c0.080078,0.097656,0.136719,0.22168,0.168945,0.371094c0.018555,0.092773,0.027344,0.259766,0.027344,0.501953v0.726562
		c0,0.506836,0.011719,0.827148,0.035156,0.961914c0.023438,0.133789,0.069336,0.262695,0.137695,0.385742h-0.569336
		C53.172562,9.310111,53.136429,9.178275,53.120804,9.026908z M53.074905,7.810111
		c-0.198242,0.080078-0.494141,0.149414-0.889648,0.205078c-0.224609,0.033203-0.382812,0.069336-0.475586,0.109375
		s-0.165039,0.099609-0.214844,0.176758c-0.050781,0.078125-0.076172,0.164062-0.076172,0.258789
		c0,0.145508,0.055664,0.266602,0.165039,0.364258c0.110352,0.09668,0.271484,0.144531,0.483398,0.144531
		c0.209961,0,0.396484-0.045898,0.55957-0.137695c0.164062-0.091797,0.28418-0.216797,0.360352-0.376953
		c0.058594-0.123047,0.087891-0.304688,0.087891-0.544922V7.810111z"/>
	<path class="st1" d="M54.470413,9.423392V6.208549h0.490234V6.66558c0.236328-0.353516,0.577148-0.530273,1.023438-0.530273
		c0.194336,0,0.37207,0.035156,0.53418,0.104492c0.163086,0.070312,0.28418,0.161133,0.365234,0.274414
		s0.136719,0.24707,0.169922,0.402344c0.019531,0.101562,0.030273,0.277344,0.030273,0.530273v1.976562h-0.544922V7.467338
		c0-0.22168-0.021484-0.387695-0.064453-0.498047c-0.041992-0.109375-0.117188-0.197266-0.224609-0.262695
		c-0.108398-0.06543-0.235352-0.098633-0.380859-0.098633c-0.231445,0-0.431641,0.073242-0.600586,0.220703
		c-0.167969,0.147461-0.25293,0.426758-0.25293,0.838867v1.755859H54.470413z"/>
	<path class="st1" d="M60.004593,9.423392V9.018119c-0.204102,0.318359-0.503906,0.477539-0.899414,0.477539
		c-0.255859,0-0.491211-0.070312-0.706055-0.211914c-0.214844-0.140625-0.381836-0.337891-0.5-0.591797
		c-0.118164-0.25293-0.176758-0.543945-0.176758-0.873047c0-0.321289,0.052734-0.612305,0.160156-0.873047
		c0.107422-0.261719,0.267578-0.461914,0.481445-0.601562c0.213867-0.138672,0.453125-0.208984,0.717773-0.208984
		c0.193359,0,0.366211,0.041016,0.517578,0.123047s0.274414,0.188477,0.369141,0.319336V4.984916h0.541992v4.438477H60.004593z
		 M58.281937,7.8189c0,0.412109,0.086914,0.719727,0.260742,0.922852c0.173828,0.204102,0.37793,0.306641,0.614258,0.306641
		c0.238281,0,0.44043-0.097656,0.607422-0.292969c0.166016-0.194336,0.249023-0.491211,0.249023-0.890625
		c0-0.44043-0.083984-0.763672-0.253906-0.96875c-0.169922-0.206055-0.37793-0.30957-0.626953-0.30957
		c-0.242188,0-0.444336,0.099609-0.606445,0.296875C58.362991,7.081595,58.281937,7.393119,58.281937,7.8189z"/>
	<path class="st1" d="M65.236038,7.683158V7.161674l1.879883-0.00293v1.647461
		c-0.288086,0.229492-0.585938,0.402344-0.892578,0.518555s-0.62207,0.174805-0.944336,0.174805
		c-0.436523,0-0.832031-0.09375-1.188477-0.280273s-0.625-0.457031-0.806641-0.80957
		c-0.181641-0.353516-0.272461-0.748047-0.272461-1.18457c0-0.431641,0.089844-0.834961,0.270508-1.208984
		s0.44043-0.652344,0.779297-0.833984c0.339844-0.181641,0.729492-0.272461,1.171875-0.272461
		c0.321289,0,0.611328,0.051758,0.870117,0.15625c0.259766,0.103516,0.462891,0.248047,0.610352,0.433594
		c0.147461,0.186523,0.258789,0.428711,0.335938,0.726562l-0.529297,0.145508
		c-0.067383-0.225586-0.149414-0.40332-0.249023-0.532227c-0.098633-0.129883-0.240234-0.233398-0.423828-0.310547
		c-0.183594-0.078125-0.386719-0.117188-0.611328-0.117188c-0.268555,0-0.5,0.041016-0.696289,0.123047
		c-0.195312,0.082031-0.353516,0.189453-0.473633,0.322266c-0.120117,0.133789-0.213867,0.279297-0.280273,0.439453
		c-0.113281,0.274414-0.168945,0.572266-0.168945,0.892578c0,0.395508,0.067383,0.726562,0.204102,0.993164
		c0.135742,0.266602,0.333984,0.463867,0.594727,0.59375c0.260742,0.128906,0.537109,0.193359,0.829102,0.193359
		c0.254883,0,0.50293-0.048828,0.745117-0.146484c0.242188-0.098633,0.425781-0.203125,0.550781-0.313477V7.683158H65.236038z"/>
	<path class="st1" d="M67.709671,7.81597c0-0.595703,0.165039-1.036133,0.496094-1.323242
		c0.276367-0.238281,0.613281-0.357422,1.010742-0.357422c0.442383,0,0.803711,0.145508,1.083984,0.43457
		c0.280273,0.290039,0.420898,0.69043,0.420898,1.200195c0,0.414062-0.061523,0.739258-0.186523,0.976562
		c-0.124023,0.237305-0.304688,0.421875-0.541016,0.552734c-0.237305,0.130859-0.496094,0.196289-0.777344,0.196289
		c-0.450195,0-0.813477-0.143555-1.09082-0.432617C67.848343,8.774955,67.709671,8.358939,67.709671,7.81597z M68.269241,7.81597
		c0,0.412109,0.089844,0.719727,0.269531,0.924805s0.405273,0.307617,0.677734,0.307617
		c0.270508,0,0.496094-0.103516,0.675781-0.30957c0.179688-0.205078,0.269531-0.519531,0.269531-0.941406
		c0-0.397461-0.09082-0.698242-0.271484-0.90332s-0.405273-0.307617-0.673828-0.307617
		c-0.272461,0-0.498047,0.102539-0.677734,0.305664C68.359085,7.096244,68.269241,7.403861,68.269241,7.81597z"/>
	<path class="st1" d="M71.354202,9.423392V6.208549h0.490234v0.487305c0.125-0.228516,0.240234-0.378906,0.345703-0.451172
		c0.107422-0.072266,0.222656-0.109375,0.351562-0.109375c0.183594,0,0.369141,0.058594,0.558594,0.175781l-0.1875,0.505859
		c-0.132812-0.079102-0.265625-0.118164-0.398438-0.118164c-0.119141,0-0.226562,0.036133-0.322266,0.107422
		c-0.09375,0.071289-0.162109,0.170898-0.203125,0.297852c-0.05957,0.194336-0.089844,0.40625-0.089844,0.635742v1.683594H71.354202
		z"/>
	<path class="st1" d="M75.625687,8.388236l0.563477,0.069336c-0.088867,0.329102-0.253906,0.583984-0.493164,0.765625
		c-0.240234,0.181641-0.547852,0.272461-0.920898,0.272461c-0.469727,0-0.842773-0.144531-1.118164-0.433594
		c-0.275391-0.290039-0.414062-0.696289-0.414062-1.21875c0-0.541016,0.139648-0.960938,0.417969-1.259766
		c0.279297-0.298828,0.639648-0.448242,1.083984-0.448242c0.429688,0,0.78125,0.146484,1.053711,0.439453
		s0.408203,0.704102,0.408203,1.235352c0,0.032227-0.000977,0.080078-0.00293,0.144531h-2.397461
		c0.020508,0.353516,0.120117,0.624023,0.299805,0.811523c0.179688,0.188477,0.40332,0.282227,0.671875,0.282227
		c0.200195,0,0.370117-0.052734,0.511719-0.158203C75.431351,8.785697,75.542679,8.617728,75.625687,8.388236z M73.836624,7.507377
		h1.794922c-0.023438-0.270508-0.092773-0.473633-0.205078-0.608398c-0.173828-0.209961-0.399414-0.31543-0.675781-0.31543
		c-0.25,0-0.459961,0.083984-0.630859,0.251953C73.948929,7.002494,73.855179,7.226127,73.836624,7.507377z"/>
	<path class="st1" d="M77.015335,9.423392V8.802299h0.621094v0.621094c0,0.228516-0.041016,0.412109-0.121094,0.552734
		c-0.081055,0.139648-0.208984,0.248047-0.384766,0.325195l-0.151367-0.233398
		c0.115234-0.049805,0.200195-0.124023,0.253906-0.222656c0.054688-0.097656,0.084961-0.238281,0.09082-0.421875H77.015335z"/>
	<path class="st1" d="M33.612015,16.863821v-4.438476h0.587402v4.438476H33.612015z"/>
	<path class="st1" d="M35.165237,16.863821v-3.214843h0.490234v0.457031c0.236328-0.353516,0.577148-0.530273,1.023438-0.530273
		c0.193848,0,0.37207,0.035156,0.53418,0.104492c0.162598,0.070312,0.28418,0.161133,0.364746,0.274414
		c0.081055,0.113281,0.137207,0.24707,0.169922,0.402344c0.02002,0.101562,0.030273,0.277344,0.030273,0.530273v1.976562h-0.544922
		v-1.956054c0-0.22168-0.021484-0.387695-0.063965-0.498047c-0.041992-0.109375-0.117188-0.197266-0.225098-0.262695
		c-0.108398-0.06543-0.234863-0.098633-0.380371-0.098633c-0.231934,0-0.432129,0.073242-0.600586,0.220703
		s-0.25293,0.426758-0.25293,0.838867v1.755858H35.165237z"/>
	<path class="st1" d="M39.803421,16.376516l0.078613,0.481445c-0.15332,0.032227-0.290527,0.047852-0.411621,0.047852
		c-0.198242,0-0.351562-0.03125-0.460449-0.09375s-0.185547-0.144531-0.22998-0.246094
		c-0.044434-0.102539-0.066406-0.316406-0.066406-0.643554v-1.849609h-0.399902v-0.423828h0.399902v-0.796875l0.541504-0.326172
		v1.123047h0.54834v0.423828h-0.54834v1.879883c0,0.155272,0.009766,0.254882,0.028809,0.299804
		c0.019531,0.043945,0.050781,0.079102,0.09375,0.105469c0.043457,0.026367,0.105469,0.040039,0.186523,0.040039
		C39.62471,16.398001,39.7043,16.390188,39.803421,16.376516z"/>
	<path class="st1" d="M42.536331,15.828666l0.563477,0.069336c-0.088867,0.329101-0.253418,0.583983-0.493652,0.765624
		s-0.546875,0.272461-0.92041,0.272461c-0.470215,0-0.842773-0.144531-1.118652-0.433594
		c-0.275391-0.290039-0.413086-0.696288-0.413086-1.218749c0-0.541016,0.13916-0.960938,0.417969-1.259766
		c0.27832-0.298828,0.639648-0.448242,1.083496-0.448242c0.430176,0,0.78125,0.146484,1.053711,0.439453
		s0.408691,0.704102,0.408691,1.235352c0,0.032227-0.000977,0.080078-0.00293,0.144531h-2.397949
		c0.02002,0.353516,0.120117,0.624022,0.299805,0.811522c0.179688,0.188477,0.403809,0.282227,0.671875,0.282227
		c0.200195,0,0.370605-0.052734,0.511719-0.158203C42.341507,16.226126,42.453812,16.058157,42.536331,15.828666z
		 M40.747269,14.947806h1.79541c-0.024414-0.270508-0.092773-0.473633-0.206055-0.608398
		c-0.17334-0.209961-0.398438-0.31543-0.674805-0.31543c-0.250488,0-0.460938,0.083984-0.631348,0.251953
		C40.860062,14.442924,40.765335,14.666556,40.747269,14.947806z"/>
	<path class="st1" d="M43.78389,16.863821v-3.214843h0.490234v0.457031c0.236328-0.353516,0.577148-0.530273,1.023438-0.530273
		c0.193848,0,0.37207,0.035156,0.53418,0.104492c0.162598,0.070312,0.28418,0.161133,0.364746,0.274414
		c0.081055,0.113281,0.137207,0.24707,0.169922,0.402344c0.02002,0.101562,0.030273,0.277344,0.030273,0.530273v1.976562h-0.544922
		v-1.956054c0-0.22168-0.021484-0.387695-0.063965-0.498047c-0.041992-0.109375-0.117188-0.197266-0.225098-0.262695
		c-0.108398-0.06543-0.234863-0.098633-0.380371-0.098633c-0.231934,0-0.432129,0.073242-0.600586,0.220703
		s-0.25293,0.426758-0.25293,0.838867v1.755858H43.78389z"/>
	<path class="st1" d="M47.014359,15.903861l0.539062-0.084961c0.030273,0.216796,0.114258,0.381835,0.25293,0.497069
		c0.137695,0.115234,0.331055,0.172852,0.579102,0.172852c0.250977,0,0.436523-0.051758,0.557617-0.15332
		s0.181641-0.22168,0.181641-0.358397c0-0.123047-0.053711-0.220703-0.161133-0.291016
		c-0.074219-0.048828-0.259766-0.110352-0.556641-0.18457c-0.399414-0.100586-0.676758-0.188477-0.831055-0.261719
		c-0.154297-0.074219-0.271484-0.175781-0.350586-0.305664c-0.080078-0.130859-0.120117-0.274414-0.120117-0.431641
		c0-0.143555,0.033203-0.276367,0.098633-0.398438s0.154297-0.223633,0.267578-0.303711
		c0.084961-0.0625,0.200195-0.115234,0.34668-0.15918c0.146484-0.042969,0.303711-0.06543,0.470703-0.06543
		c0.251953,0,0.473633,0.037109,0.665039,0.109375c0.19043,0.072266,0.331055,0.170898,0.421875,0.294922
		s0.15332,0.290039,0.1875,0.498047l-0.532227,0.073242c-0.024414-0.166016-0.094727-0.294922-0.210938-0.387695
		s-0.280273-0.139648-0.492188-0.139648c-0.25,0-0.428711,0.041992-0.535156,0.124023
		c-0.107422,0.083008-0.161133,0.179688-0.161133,0.291016c0,0.070312,0.022461,0.133789,0.067383,0.19043
		c0.043945,0.058594,0.113281,0.107422,0.208984,0.145508c0.053711,0.020508,0.214844,0.066406,0.480469,0.139648
		c0.385742,0.102539,0.655273,0.186523,0.807617,0.251953c0.152344,0.066406,0.271484,0.161133,0.358398,0.286133
		c0.086914,0.125977,0.129883,0.28125,0.129883,0.466797c0,0.18164-0.052734,0.352538-0.158203,0.512694
		c-0.106445,0.161133-0.259766,0.285156-0.458984,0.373047c-0.200195,0.086914-0.425781,0.130859-0.678711,0.130859
		c-0.416992,0-0.735352-0.085938-0.955078-0.259766C47.214554,16.502493,47.074905,16.245657,47.014359,15.903861z"/>
	<path class="st1" d="M52.532913,15.828666l0.563477,0.069336c-0.088867,0.329101-0.25293,0.583983-0.493164,0.765624
		s-0.546875,0.272461-0.920898,0.272461c-0.469727,0-0.842773-0.144531-1.118164-0.433594
		c-0.275391-0.290039-0.413086-0.696288-0.413086-1.218749c0-0.541016,0.138672-0.960938,0.417969-1.259766
		c0.27832-0.298828,0.639648-0.448242,1.083008-0.448242c0.430664,0,0.78125,0.146484,1.053711,0.439453
		s0.40918,0.704102,0.40918,1.235352c0,0.032227-0.000977,0.080078-0.00293,0.144531h-2.398438
		c0.020508,0.353516,0.120117,0.624022,0.299805,0.811522c0.179688,0.188477,0.404297,0.282227,0.671875,0.282227
		c0.200195,0,0.371094-0.052734,0.511719-0.158203C52.338577,16.226126,52.450882,16.058157,52.532913,15.828666z
		 M50.743851,14.947806h1.795898c-0.024414-0.270508-0.092773-0.473633-0.206055-0.608398
		c-0.173828-0.209961-0.398438-0.31543-0.674805-0.31543c-0.250977,0-0.460938,0.083984-0.631836,0.251953
		C50.857132,14.442924,50.762405,14.666556,50.743851,14.947806z"/>
	<path class="st1" d="M56.84053,16.863821l-1.71875-4.438476h0.635742l1.15332,3.224609
		c0.092773,0.257812,0.169922,0.499999,0.232422,0.726562c0.069336-0.242188,0.148438-0.484374,0.239258-0.726562l1.199219-3.224609
		h0.599609l-1.738281,4.438476H56.84053z"/>
	<path class="st1" d="M59.529007,13.052299v-0.626953h0.544922v0.626953H59.529007z M59.529007,16.863821v-3.214843h0.544922
		v3.214843H59.529007z"/>
	<path class="st1" d="M60.700882,15.2564c0-0.595703,0.165039-1.036133,0.496094-1.323242
		c0.277344-0.238281,0.614258-0.357422,1.011719-0.357422c0.441406,0,0.802734,0.145508,1.083984,0.43457
		c0.280273,0.290039,0.420898,0.69043,0.420898,1.200195c0,0.414062-0.0625,0.739258-0.186523,0.976562
		c-0.124023,0.237305-0.304688,0.421875-0.541992,0.552734s-0.496094,0.196289-0.776367,0.196289
		c-0.450195,0-0.814453-0.143555-1.091797-0.432617C60.839554,16.215384,60.700882,15.799369,60.700882,15.2564z M61.261429,15.2564
		c0,0.412109,0.088867,0.719727,0.268555,0.924804c0.179688,0.205078,0.40625,0.307617,0.678711,0.307617
		c0.270508,0,0.495117-0.103516,0.674805-0.30957c0.179688-0.205077,0.269531-0.51953,0.269531-0.941405
		c0-0.397461-0.089844-0.698242-0.270508-0.90332s-0.405273-0.307617-0.673828-0.307617
		c-0.272461,0-0.499023,0.102539-0.678711,0.305664C61.350296,14.536674,61.261429,14.844291,61.261429,15.2564z"/>
	<path class="st1" d="M64.339554,16.863821v-4.438476h0.544922v4.438476H64.339554z"/>
	<path class="st1" d="M67.930374,15.828666l0.563477,0.069336c-0.088867,0.329101-0.253906,0.583983-0.494141,0.765624
		s-0.546875,0.272461-0.919922,0.272461c-0.470703,0-0.842773-0.144531-1.119141-0.433594
		c-0.275391-0.290039-0.413086-0.696288-0.413086-1.218749c0-0.541016,0.139648-0.960938,0.417969-1.259766
		s0.639648-0.448242,1.083984-0.448242c0.429688,0,0.78125,0.146484,1.053711,0.439453s0.408203,0.704102,0.408203,1.235352
		c0,0.032227-0.000977,0.080078-0.00293,0.144531h-2.397461c0.019531,0.353516,0.120117,0.624022,0.299805,0.811522
		c0.179688,0.188477,0.40332,0.282227,0.671875,0.282227c0.200195,0,0.370117-0.052734,0.511719-0.158203
		C67.735062,16.226126,67.847366,16.058157,67.930374,15.828666z M66.141312,14.947806h1.794922
		c-0.024414-0.270508-0.092773-0.473633-0.206055-0.608398c-0.172852-0.209961-0.398438-0.31543-0.674805-0.31543
		c-0.25,0-0.460938,0.083984-0.630859,0.251953C66.253616,14.442924,66.15889,14.666556,66.141312,14.947806z"/>
	<path class="st1" d="M69.177444,16.863821v-3.214843h0.490234v0.457031c0.236328-0.353516,0.577148-0.530273,1.023438-0.530273
		c0.194336,0,0.37207,0.035156,0.53418,0.104492c0.163086,0.070312,0.28418,0.161133,0.365234,0.274414
		c0.080078,0.113281,0.136719,0.24707,0.169922,0.402344c0.019531,0.101562,0.029297,0.277344,0.029297,0.530273v1.976562h-0.543945
		v-1.956054c0-0.22168-0.021484-0.387695-0.064453-0.498047c-0.041992-0.109375-0.117188-0.197266-0.224609-0.262695
		c-0.108398-0.06543-0.235352-0.098633-0.380859-0.098633c-0.231445,0-0.431641,0.073242-0.600586,0.220703
		c-0.167969,0.147461-0.25293,0.426758-0.25293,0.838867v1.755858H69.177444z"/>
	<path class="st1" d="M74.723343,15.686088l0.536133,0.069336c-0.058594,0.370116-0.208984,0.659179-0.450195,0.868163
		c-0.241211,0.208008-0.537109,0.3125-0.888672,0.3125c-0.439453,0-0.792969-0.143555-1.060547-0.430664
		c-0.267578-0.288086-0.401367-0.700194-0.401367-1.237304c0-0.34668,0.057617-0.650391,0.172852-0.911133
		c0.114258-0.259766,0.290039-0.455078,0.525391-0.585938c0.234375-0.129883,0.490234-0.195312,0.766602-0.195312
		c0.349609,0,0.634766,0.088867,0.857422,0.265625c0.22168,0.176758,0.364258,0.426758,0.426758,0.751953l-0.530273,0.082031
		c-0.049805-0.21582-0.139648-0.378906-0.267578-0.487305c-0.12793-0.109375-0.283203-0.164062-0.464844-0.164062
		c-0.274414,0-0.49707,0.098633-0.668945,0.294922c-0.171875,0.197266-0.256836,0.508789-0.256836,0.93457
		c0,0.431641,0.082031,0.745117,0.248047,0.941405c0.165039,0.195312,0.380859,0.293945,0.647461,0.293945
		c0.213867,0,0.392578-0.066406,0.536133-0.197266S74.685257,15.958549,74.723343,15.686088z"/>
	<path class="st1" d="M77.926468,15.828666l0.563477,0.069336c-0.088867,0.329101-0.253906,0.583983-0.493164,0.765624
		c-0.240234,0.181641-0.547852,0.272461-0.920898,0.272461c-0.469727,0-0.842773-0.144531-1.118164-0.433594
		c-0.275391-0.290039-0.414062-0.696288-0.414062-1.218749c0-0.541016,0.139648-0.960938,0.417969-1.259766
		c0.279297-0.298828,0.639648-0.448242,1.083984-0.448242c0.429688,0,0.78125,0.146484,1.053711,0.439453
		s0.408203,0.704102,0.408203,1.235352c0,0.032227-0.000977,0.080078-0.00293,0.144531h-2.397461
		c0.020508,0.353516,0.120117,0.624022,0.299805,0.811522c0.179688,0.188477,0.40332,0.282227,0.671875,0.282227
		c0.200195,0,0.370117-0.052734,0.511719-0.158203C77.732132,16.226126,77.84346,16.058157,77.926468,15.828666z
		 M76.137405,14.947806h1.794922c-0.023438-0.270508-0.092773-0.473633-0.205078-0.608398
		c-0.173828-0.209961-0.399414-0.31543-0.675781-0.31543c-0.25,0-0.459961,0.083984-0.630859,0.251953
		C76.24971,14.442924,76.15596,14.666556,76.137405,14.947806z"/>
	<path class="st1" d="M79.316116,16.863821v-0.621094h0.621094v0.621094c0,0.228516-0.041016,0.412109-0.121094,0.552734
		c-0.081055,0.139648-0.208984,0.248047-0.384766,0.325195l-0.151367-0.233398
		c0.115234-0.049805,0.200195-0.124023,0.253906-0.222656c0.054688-0.097656,0.084961-0.238281,0.09082-0.421875H79.316116z"/>
	<path class="st1" d="M33.506058,24.303274v-4.438477h0.602539l2.331055,3.485352v-3.485352h0.562988v4.438477h-0.602539
		l-2.331055-3.487305v3.487305H33.506058z"/>
	<path class="st1" d="M40.027054,24.303274v-0.472656c-0.25,0.363281-0.590332,0.544922-1.02002,0.544922
		c-0.189941,0-0.366699-0.036133-0.53125-0.108398c-0.164551-0.073242-0.286621-0.164062-0.366699-0.274414
		c-0.07959-0.109375-0.135742-0.244141-0.167969-0.404297c-0.021973-0.106445-0.033203-0.276367-0.033203-0.507812V21.08843
		h0.544922v1.783203c0,0.28418,0.01123,0.475586,0.033203,0.575195c0.034668,0.142578,0.106934,0.255859,0.218262,0.336914
		c0.11084,0.082031,0.248047,0.123047,0.411621,0.123047s0.316895-0.041992,0.459961-0.125977
		c0.143555-0.083008,0.245117-0.197266,0.304688-0.341797c0.059082-0.144531,0.088867-0.353516,0.088867-0.62793V21.08843h0.544922
		v3.214844H40.027054z"/>
	<path class="st1" d="M43.4543,24.303274v-0.405273c-0.204102,0.318359-0.503906,0.477539-0.899414,0.477539
		c-0.256348,0-0.491699-0.070312-0.706543-0.211914c-0.214844-0.140625-0.381836-0.337891-0.499512-0.591797
		c-0.118164-0.25293-0.177246-0.543945-0.177246-0.873047c0-0.321289,0.053223-0.612305,0.160645-0.873047
		c0.106934-0.261719,0.26709-0.461914,0.480957-0.601562c0.213867-0.138672,0.453125-0.208984,0.717773-0.208984
		c0.193848,0,0.366211,0.041016,0.517578,0.123047s0.274414,0.188477,0.369141,0.319336v-1.592773h0.541992v4.438477H43.4543z
		 M41.731644,22.698782c0,0.412109,0.086914,0.719727,0.260254,0.922852c0.173828,0.204102,0.378418,0.306641,0.614746,0.306641
		c0.237793,0,0.44043-0.097656,0.606934-0.292969c0.166504-0.194336,0.249512-0.491211,0.249512-0.890625
		c0-0.44043-0.084473-0.763672-0.253906-0.96875c-0.169922-0.206055-0.378418-0.30957-0.626953-0.30957
		c-0.242188,0-0.444336,0.099609-0.606934,0.296875C41.812698,21.961477,41.731644,22.273001,41.731644,22.698782z"/>
	<path class="st1" d="M44.819046,20.491751v-0.626953h0.544922v0.626953H44.819046z M44.819046,24.303274V21.08843h0.544922
		v3.214844H44.819046z"/>
	<path class="st1" d="M47.383499,23.815969l0.079102,0.481445c-0.15332,0.032227-0.291016,0.047852-0.412109,0.047852
		c-0.198242,0-0.351562-0.03125-0.460449-0.09375s-0.185547-0.144531-0.22998-0.246094
		c-0.044434-0.102539-0.066406-0.316406-0.066406-0.643555v-1.849609h-0.399902V21.08843h0.399902v-0.796875l0.541992-0.326172
		v1.123047h0.547852v0.423828h-0.547852v1.879883c0,0.155273,0.009766,0.254883,0.02832,0.299805
		c0.019531,0.043945,0.050781,0.079102,0.09375,0.105469c0.043945,0.026367,0.105469,0.040039,0.186523,0.040039
		C47.204788,23.837454,47.284866,23.829641,47.383499,23.815969z"/>
	<path class="st1" d="M47.892288,25.541555l-0.060547-0.511719c0.119141,0.032227,0.222656,0.048828,0.311523,0.048828
		c0.121094,0,0.217773-0.020508,0.291016-0.060547c0.072266-0.041016,0.131836-0.097656,0.178711-0.169922
		c0.03418-0.054688,0.089844-0.189453,0.166016-0.405273c0.010742-0.030273,0.026367-0.075195,0.048828-0.133789l-1.219727-3.220703
		h0.586914l0.668945,1.861328c0.086914,0.236328,0.164062,0.484375,0.233398,0.745117
		c0.0625-0.25,0.136719-0.494141,0.223633-0.732422l0.6875-1.874023h0.544922l-1.223633,3.269531
		c-0.130859,0.352539-0.232422,0.595703-0.305664,0.729492c-0.09668,0.179688-0.208008,0.311523-0.333008,0.394531
		c-0.125,0.083984-0.274414,0.125977-0.447266,0.125977C48.138382,25.607962,48.021194,25.585501,47.892288,25.541555z"/>
	<path class="st1" d="M50.698929,24.303274V23.68218h0.620117v0.621094c0,0.228516-0.040039,0.412109-0.121094,0.552734
		c-0.080078,0.139648-0.208008,0.248047-0.383789,0.325195l-0.151367-0.233398
		c0.115234-0.049805,0.199219-0.124023,0.253906-0.222656c0.054688-0.097656,0.084961-0.238281,0.09082-0.421875H50.698929z"/>
	<path class="st1" d="M53.870804,22.877493l0.554688-0.048828c0.026367,0.222656,0.086914,0.404297,0.182617,0.546875
		s0.245117,0.256836,0.447266,0.344727c0.201172,0.087891,0.428711,0.131836,0.680664,0.131836
		c0.223633,0,0.421875-0.033203,0.59375-0.099609c0.170898-0.066406,0.298828-0.158203,0.382812-0.274414
		s0.125-0.242188,0.125-0.379883c0-0.138672-0.040039-0.260742-0.121094-0.364258
		c-0.080078-0.104492-0.213867-0.191406-0.399414-0.262695c-0.119141-0.045898-0.381836-0.118164-0.790039-0.21582
		c-0.407227-0.097656-0.693359-0.19043-0.856445-0.277344c-0.211914-0.110352-0.370117-0.248047-0.473633-0.413086
		c-0.104492-0.164062-0.15625-0.348633-0.15625-0.552734c0-0.223633,0.063477-0.432617,0.19043-0.62793
		c0.12793-0.194336,0.313477-0.342773,0.557617-0.443359s0.515625-0.151367,0.814453-0.151367
		c0.328125,0,0.619141,0.052734,0.870117,0.15918c0.250977,0.105469,0.444336,0.261719,0.580078,0.467773
		c0.134766,0.205078,0.207031,0.438477,0.217773,0.699219l-0.563477,0.041992
		c-0.030273-0.280273-0.132812-0.492188-0.307617-0.635742c-0.173828-0.143555-0.431641-0.214844-0.773438-0.214844
		c-0.354492,0-0.613281,0.06543-0.776367,0.195312c-0.162109,0.129883-0.243164,0.287109-0.243164,0.470703
		c0,0.15918,0.057617,0.291016,0.171875,0.393555c0.113281,0.102539,0.408203,0.208008,0.885742,0.316406
		s0.804688,0.202148,0.982422,0.283203c0.258789,0.119141,0.449219,0.269531,0.572266,0.452148s0.18457,0.393555,0.18457,0.631836
		c0,0.235352-0.067383,0.458008-0.203125,0.666992c-0.134766,0.208984-0.329102,0.371094-0.582031,0.487305
		c-0.253906,0.116211-0.539062,0.174805-0.855469,0.174805c-0.401367,0-0.738281-0.058594-1.009766-0.175781
		s-0.484375-0.292969-0.638672-0.52832S53.879593,23.174368,53.870804,22.877493z"/>
	<path class="st1" d="M59.326859,23.815969l0.078125,0.481445c-0.15332,0.032227-0.290039,0.047852-0.411133,0.047852
		c-0.198242,0-0.351562-0.03125-0.460938-0.09375c-0.108398-0.0625-0.185547-0.144531-0.229492-0.246094
		c-0.044922-0.102539-0.066406-0.316406-0.066406-0.643555v-1.849609h-0.400391V21.08843h0.400391v-0.796875l0.541016-0.326172
		v1.123047h0.548828v0.423828H58.77803v1.879883c0,0.155273,0.009766,0.254883,0.029297,0.299805
		c0.019531,0.043945,0.050781,0.079102,0.09375,0.105469s0.105469,0.040039,0.186523,0.040039
		C59.148148,23.837454,59.227249,23.829641,59.326859,23.815969z"/>
	<path class="st1" d="M59.853226,24.303274V21.08843h0.490234v0.487305c0.125-0.228516,0.241211-0.378906,0.34668-0.451172
		c0.106445-0.072266,0.222656-0.109375,0.349609-0.109375c0.183594,0,0.370117,0.058594,0.560547,0.175781l-0.1875,0.505859
		c-0.133789-0.079102-0.266602-0.118164-0.400391-0.118164c-0.119141,0-0.225586,0.036133-0.320312,0.107422
		s-0.163086,0.170898-0.203125,0.297852c-0.060547,0.194336-0.09082,0.40625-0.09082,0.635742v1.683594H59.853226z"/>
	<path class="st1" d="M61.72139,22.695852c0-0.595703,0.165039-1.036133,0.496094-1.323242
		c0.277344-0.238281,0.614258-0.357422,1.011719-0.357422c0.441406,0,0.802734,0.145508,1.083984,0.43457
		c0.280273,0.290039,0.420898,0.69043,0.420898,1.200195c0,0.414062-0.0625,0.739258-0.186523,0.976562
		s-0.304688,0.421875-0.541992,0.552734s-0.496094,0.196289-0.776367,0.196289c-0.450195,0-0.814453-0.143555-1.091797-0.432617
		C61.860062,23.654837,61.72139,23.238821,61.72139,22.695852z M62.281937,22.695852
		c0,0.412109,0.088867,0.719727,0.268555,0.924805s0.40625,0.307617,0.678711,0.307617
		c0.270508,0,0.495117-0.103516,0.674805-0.30957c0.179688-0.205078,0.269531-0.519531,0.269531-0.941406
		c0-0.397461-0.089844-0.698242-0.270508-0.90332s-0.405273-0.307617-0.673828-0.307617
		c-0.272461,0-0.499023,0.102539-0.678711,0.305664C62.370804,21.976126,62.281937,22.283743,62.281937,22.695852z"/>
	<path class="st1" d="M65.37178,24.303274V21.08843h0.490234v0.457031c0.236328-0.353516,0.577148-0.530273,1.023438-0.530273
		c0.194336,0,0.37207,0.035156,0.53418,0.104492c0.163086,0.070312,0.28418,0.161133,0.365234,0.274414
		s0.136719,0.24707,0.169922,0.402344c0.019531,0.101562,0.030273,0.277344,0.030273,0.530273v1.976562H67.44014v-1.956055
		c0-0.22168-0.021484-0.387695-0.064453-0.498047c-0.041992-0.109375-0.117188-0.197266-0.224609-0.262695
		c-0.108398-0.06543-0.235352-0.098633-0.380859-0.098633c-0.231445,0-0.431641,0.073242-0.600586,0.220703
		c-0.167969,0.147461-0.25293,0.426758-0.25293,0.838867v1.755859H65.37178z"/>
	<path class="st1" d="M68.720413,24.569876l0.529297,0.078125c0.022461,0.164062,0.083984,0.283203,0.185547,0.357422
		c0.134766,0.101562,0.319336,0.151367,0.553711,0.151367c0.251953,0,0.447266-0.049805,0.583984-0.151367
		c0.137695-0.100586,0.230469-0.242188,0.27832-0.423828c0.02832-0.110352,0.041992-0.34375,0.040039-0.699219
		c-0.238281,0.280273-0.535156,0.420898-0.890625,0.420898c-0.441406,0-0.78418-0.15918-1.026367-0.478516
		c-0.242188-0.318359-0.363281-0.701172-0.363281-1.147461c0-0.306641,0.055664-0.589844,0.166992-0.848633
		c0.110352-0.259766,0.271484-0.459961,0.482422-0.601562c0.210938-0.140625,0.458984-0.211914,0.743164-0.211914
		c0.379883,0,0.692383,0.15332,0.938477,0.460938V21.08843h0.50293v2.779297c0,0.5-0.050781,0.854492-0.15332,1.063477
		c-0.101562,0.208984-0.262695,0.374023-0.484375,0.495117c-0.220703,0.121094-0.492188,0.181641-0.81543,0.181641
		c-0.383789,0-0.693359-0.085938-0.929688-0.258789S68.712601,24.916555,68.720413,24.569876z M69.171585,22.638235
		c0,0.421875,0.083984,0.729492,0.250977,0.922852c0.167969,0.194336,0.37793,0.291016,0.629883,0.291016
		c0.25,0,0.459961-0.09668,0.629883-0.289062c0.168945-0.192383,0.253906-0.495117,0.253906-0.90625
		c0-0.393555-0.086914-0.69043-0.261719-0.890625c-0.174805-0.199219-0.384766-0.299805-0.630859-0.299805
		c-0.242188,0-0.448242,0.098633-0.618164,0.295898C69.256546,21.958548,69.171585,22.25054,69.171585,22.638235z"/>
	<path class="st1" d="M33.487991,31.743704v-4.438477h0.587402v3.915039h2.185547v0.523438H33.487991z"/>
	<path class="st1" d="M38.988968,31.347219c-0.202148,0.171875-0.396484,0.292969-0.583008,0.363281
		s-0.387207,0.105469-0.601074,0.105469c-0.353027,0-0.624512-0.085938-0.813965-0.258789
		c-0.189941-0.171875-0.284668-0.392578-0.284668-0.661133c0-0.157227,0.035645-0.300781,0.107422-0.431641
		c0.071777-0.129883,0.165527-0.234375,0.281738-0.313477c0.115723-0.078125,0.246582-0.137695,0.391602-0.178711
		c0.106934-0.027344,0.268555-0.054688,0.484375-0.081055c0.439941-0.052734,0.76416-0.115234,0.972168-0.1875
		c0.001953-0.075195,0.00293-0.12207,0.00293-0.142578c0-0.22168-0.051758-0.378906-0.154297-0.469727
		c-0.139648-0.123047-0.346191-0.18457-0.620605-0.18457c-0.256348,0-0.445801,0.044922-0.567871,0.134766
		s-0.212402,0.249023-0.270996,0.477539l-0.532715-0.073242c0.04834-0.227539,0.12793-0.412109,0.239258-0.552734
		c0.11084-0.139648,0.271484-0.248047,0.481445-0.323242c0.209473-0.076172,0.452637-0.114258,0.729492-0.114258
		c0.274414,0,0.497559,0.032227,0.668945,0.097656c0.171387,0.064453,0.297852,0.145508,0.378418,0.243164
		s0.137207,0.22168,0.169434,0.371094c0.018066,0.092773,0.027344,0.259766,0.027344,0.501953v0.726562
		c0,0.506836,0.011719,0.827148,0.034668,0.961914c0.023438,0.133789,0.069336,0.262695,0.137695,0.385742h-0.568848
		C39.041214,31.630423,39.005081,31.498587,38.988968,31.347219z M38.943558,30.130423
		c-0.198242,0.080078-0.494629,0.149414-0.890137,0.205078c-0.224121,0.033203-0.382812,0.069336-0.475586,0.109375
		s-0.164551,0.099609-0.214844,0.176758c-0.050293,0.078125-0.075684,0.164062-0.075684,0.258789
		c0,0.145508,0.055176,0.266602,0.165039,0.364258c0.109863,0.09668,0.270996,0.144531,0.48291,0.144531
		c0.209961,0,0.396484-0.045898,0.560059-0.137695s0.283691-0.216797,0.360352-0.376953
		c0.058594-0.123047,0.087891-0.304688,0.087891-0.544922V30.130423z"/>
	<path class="st1" d="M40.339066,31.743704V28.52886H40.8293v0.457031c0.236328-0.353516,0.577148-0.530273,1.023438-0.530273
		c0.193848,0,0.37207,0.035156,0.53418,0.104492c0.162598,0.070312,0.28418,0.161133,0.364746,0.274414
		c0.081055,0.113281,0.137207,0.24707,0.169922,0.402344c0.02002,0.101562,0.030273,0.277344,0.030273,0.530273v1.976562h-0.544922
		v-1.956055c0-0.22168-0.021484-0.387695-0.063965-0.498047c-0.041992-0.109375-0.117188-0.197266-0.225098-0.262695
		c-0.108398-0.06543-0.234863-0.098633-0.380371-0.098633c-0.231934,0-0.432129,0.073242-0.600586,0.220703
		s-0.25293,0.426758-0.25293,0.838867v1.755859H40.339066z"/>
	<path class="st1" d="M43.686722,32.010307l0.529785,0.078125c0.022461,0.164062,0.083984,0.283203,0.185059,0.357422
		c0.134766,0.101562,0.319824,0.151367,0.553711,0.151367c0.252441,0,0.447266-0.049805,0.584473-0.151367
		c0.137207-0.100586,0.22998-0.242188,0.27832-0.423828c0.02832-0.110353,0.041504-0.343752,0.039551-0.699221
		c-0.238281,0.280273-0.535156,0.420898-0.890137,0.420898c-0.441895,0-0.78418-0.15918-1.026367-0.478516
		c-0.242188-0.318359-0.363281-0.701172-0.363281-1.147461c0-0.306641,0.055664-0.589844,0.166504-0.848633
		c0.11084-0.259766,0.271973-0.459961,0.48291-0.601562c0.210938-0.140625,0.458496-0.211914,0.743164-0.211914
		c0.379395,0,0.692383,0.15332,0.938477,0.460938V28.52886h0.502441v2.779297c0,0.5-0.050781,0.854494-0.152832,1.063478
		c-0.101562,0.208984-0.263184,0.374023-0.484375,0.495117c-0.220703,0.121094-0.492676,0.181641-0.815918,0.181641
		c-0.383301,0-0.692871-0.085938-0.929199-0.258789S43.678909,32.356987,43.686722,32.010307z M44.137894,30.078665
		c0,0.421875,0.083984,0.729492,0.251465,0.922852c0.16748,0.194336,0.377441,0.291016,0.629395,0.291016
		c0.250488,0,0.460449-0.09668,0.629883-0.289062s0.254395-0.495117,0.254395-0.90625
		c0-0.393555-0.087402-0.69043-0.262207-0.890625c-0.174316-0.199219-0.384766-0.299805-0.630859-0.299805
		c-0.242188,0-0.448242,0.098633-0.617676,0.295898C44.222855,29.398977,44.137894,29.690969,44.137894,30.078665z"/>
	<path class="st1" d="M49.342484,31.743704v-0.472656c-0.25,0.363281-0.59082,0.544922-1.020508,0.544922
		c-0.189453,0-0.366211-0.036133-0.53125-0.108398c-0.164062-0.073242-0.286133-0.164062-0.366211-0.274414
		c-0.080078-0.109375-0.135742-0.244141-0.167969-0.404297c-0.022461-0.106445-0.033203-0.276367-0.033203-0.507812V28.52886
		h0.544922v1.783203c0,0.28418,0.010742,0.475586,0.033203,0.575195c0.03418,0.142578,0.106445,0.255859,0.217773,0.336914
		c0.111328,0.082031,0.248047,0.123047,0.412109,0.123047c0.163086,0,0.316406-0.041992,0.459961-0.125977
		c0.143555-0.083008,0.245117-0.197266,0.304688-0.341797c0.058594-0.144531,0.088867-0.353516,0.088867-0.62793V28.52886h0.544922
		v3.214844H49.342484z"/>
	<path class="st1" d="M52.781937,31.347219c-0.202148,0.171875-0.396484,0.292969-0.583008,0.363281
		s-0.387695,0.105469-0.601562,0.105469c-0.352539,0-0.624023-0.085938-0.813477-0.258789
		c-0.19043-0.171875-0.285156-0.392578-0.285156-0.661133c0-0.157227,0.036133-0.300781,0.107422-0.431641
		c0.072266-0.129883,0.166016-0.234375,0.282227-0.313477c0.115234-0.078125,0.246094-0.137695,0.391602-0.178711
		c0.106445-0.027344,0.268555-0.054688,0.484375-0.081055c0.439453-0.052734,0.763672-0.115234,0.97168-0.1875
		c0.001953-0.075195,0.00293-0.12207,0.00293-0.142578c0-0.22168-0.051758-0.378906-0.154297-0.469727
		c-0.139648-0.123047-0.345703-0.18457-0.620117-0.18457c-0.256836,0-0.446289,0.044922-0.568359,0.134766
		s-0.211914,0.249023-0.270508,0.477539l-0.533203-0.073242c0.048828-0.227539,0.12793-0.412109,0.239258-0.552734
		c0.111328-0.139648,0.271484-0.248047,0.481445-0.323242c0.209961-0.076172,0.453125-0.114258,0.729492-0.114258
		c0.274414,0,0.498047,0.032227,0.668945,0.097656c0.171875,0.064453,0.297852,0.145508,0.378906,0.243164
		c0.080078,0.097656,0.136719,0.22168,0.168945,0.371094c0.018555,0.092773,0.027344,0.259766,0.027344,0.501953v0.726562
		c0,0.506836,0.011719,0.827148,0.035156,0.961914c0.023438,0.133789,0.069336,0.262695,0.137695,0.385742h-0.569336
		C52.833694,31.630423,52.797562,31.498587,52.781937,31.347219z M52.736038,30.130423
		c-0.198242,0.080078-0.494141,0.149414-0.889648,0.205078c-0.224609,0.033203-0.382812,0.069336-0.475586,0.109375
		s-0.165039,0.099609-0.214844,0.176758c-0.050781,0.078125-0.076172,0.164062-0.076172,0.258789
		c0,0.145508,0.055664,0.266602,0.165039,0.364258c0.110352,0.09668,0.271484,0.144531,0.483398,0.144531
		c0.209961,0,0.396484-0.045898,0.55957-0.137695c0.164062-0.091797,0.28418-0.216797,0.360352-0.376953
		c0.058594-0.123047,0.087891-0.304688,0.087891-0.544922V30.130423z"/>
	<path class="st1" d="M54.031937,32.010307l0.529297,0.078125c0.022461,0.164062,0.083984,0.283203,0.185547,0.357422
		c0.134766,0.101562,0.319336,0.151367,0.553711,0.151367c0.251953,0,0.447266-0.049805,0.583984-0.151367
		c0.137695-0.100586,0.230469-0.242188,0.27832-0.423828c0.02832-0.110353,0.041992-0.343752,0.040039-0.699221
		c-0.238281,0.280273-0.535156,0.420898-0.890625,0.420898c-0.441406,0-0.78418-0.15918-1.026367-0.478516
		c-0.242188-0.318359-0.363281-0.701172-0.363281-1.147461c0-0.306641,0.055664-0.589844,0.166992-0.848633
		c0.110352-0.259766,0.271484-0.459961,0.482422-0.601562c0.210938-0.140625,0.458984-0.211914,0.743164-0.211914
		c0.379883,0,0.692383,0.15332,0.938477,0.460938V28.52886h0.50293v2.779297c0,0.5-0.050781,0.854494-0.15332,1.063478
		c-0.101562,0.208984-0.262695,0.374023-0.484375,0.495117c-0.220703,0.121094-0.492188,0.181641-0.81543,0.181641
		c-0.383789,0-0.693359-0.085938-0.929688-0.258789S54.024124,32.356987,54.031937,32.010307z M54.483109,30.078665
		c0,0.421875,0.083984,0.729492,0.250977,0.922852c0.167969,0.194336,0.37793,0.291016,0.629883,0.291016
		c0.25,0,0.459961-0.09668,0.629883-0.289062c0.168945-0.192383,0.253906-0.495117,0.253906-0.90625
		c0-0.393555-0.086914-0.69043-0.261719-0.890625c-0.174805-0.199219-0.384766-0.299805-0.630859-0.299805
		c-0.242188,0-0.448242,0.098633-0.618164,0.295898C54.568069,29.398977,54.483109,29.690969,54.483109,30.078665z"/>
	<path class="st1" d="M59.78096,30.708548l0.563477,0.069336c-0.088867,0.329102-0.253906,0.583984-0.494141,0.765625
		s-0.546875,0.272461-0.919922,0.272461c-0.470703,0-0.842773-0.144531-1.119141-0.433594
		c-0.275391-0.290039-0.413086-0.696289-0.413086-1.21875c0-0.541016,0.139648-0.960938,0.417969-1.259766
		s0.639648-0.448242,1.083984-0.448242c0.429688,0,0.78125,0.146484,1.053711,0.439453s0.408203,0.704102,0.408203,1.235352
		c0,0.032227-0.000977,0.080078-0.00293,0.144531h-2.397461c0.019531,0.353516,0.120117,0.624023,0.299805,0.811523
		c0.179688,0.188477,0.40332,0.282227,0.671875,0.282227c0.200195,0,0.370117-0.052734,0.511719-0.158203
		C59.585648,31.106009,59.697952,30.93804,59.78096,30.708548z M57.991898,29.827688h1.794922
		c-0.024414-0.270508-0.092773-0.473633-0.206055-0.608398c-0.172852-0.209961-0.398438-0.31543-0.674805-0.31543
		c-0.25,0-0.460938,0.083984-0.630859,0.251953C58.104202,29.322805,58.009476,29.546438,57.991898,29.827688z"/>
	<path class="st1" d="M61.169632,31.743704V31.12261h0.621094v0.621094c0,0.228516-0.040039,0.412111-0.121094,0.552736
		c-0.081055,0.139648-0.208984,0.248047-0.384766,0.325195l-0.151367-0.233398
		c0.115234-0.049805,0.200195-0.124023,0.254883-0.222656c0.053711-0.097656,0.083984-0.238283,0.09082-0.421877H61.169632z"/>
	<path class="st1" d="M64.342484,30.317923l0.554688-0.048828c0.026367,0.222656,0.086914,0.404297,0.182617,0.546875
		s0.245117,0.256836,0.447266,0.344727c0.201172,0.087891,0.428711,0.131836,0.680664,0.131836
		c0.223633,0,0.421875-0.033203,0.59375-0.099609c0.170898-0.066406,0.298828-0.158203,0.382812-0.274414
		s0.125-0.242188,0.125-0.379883c0-0.138672-0.040039-0.260742-0.121094-0.364258
		c-0.080078-0.104492-0.213867-0.191406-0.399414-0.262695c-0.119141-0.045898-0.381836-0.118164-0.790039-0.21582
		c-0.407227-0.097656-0.693359-0.19043-0.856445-0.277344c-0.211914-0.110352-0.370117-0.248047-0.473633-0.413086
		c-0.104492-0.164062-0.15625-0.348633-0.15625-0.552734c0-0.223633,0.063477-0.432617,0.19043-0.62793
		c0.12793-0.194336,0.313477-0.342773,0.557617-0.443359s0.515625-0.151367,0.814453-0.151367
		c0.328125,0,0.619141,0.052734,0.870117,0.15918c0.250977,0.105469,0.444336,0.261719,0.580078,0.467773
		c0.134766,0.205078,0.207031,0.438477,0.217773,0.699219l-0.563477,0.041992
		c-0.030273-0.280273-0.132812-0.492188-0.307617-0.635742c-0.173828-0.143555-0.431641-0.214844-0.773438-0.214844
		c-0.354492,0-0.613281,0.06543-0.776367,0.195312c-0.162109,0.129883-0.243164,0.287109-0.243164,0.470703
		c0,0.15918,0.057617,0.291016,0.171875,0.393555c0.113281,0.102539,0.408203,0.208008,0.885742,0.316406
		s0.804688,0.202148,0.982422,0.283203c0.258789,0.119141,0.449219,0.269531,0.572266,0.452148s0.18457,0.393555,0.18457,0.631836
		c0,0.235352-0.067383,0.458008-0.203125,0.666992c-0.134766,0.208984-0.329102,0.371094-0.582031,0.487305
		c-0.253906,0.116211-0.539062,0.174805-0.855469,0.174805c-0.401367,0-0.738281-0.058594-1.009766-0.175781
		s-0.484375-0.292969-0.638672-0.52832S64.351273,30.614798,64.342484,30.317923z"/>
	<path class="st1" d="M69.798538,31.256399l0.078125,0.481445c-0.15332,0.032227-0.290039,0.047852-0.411133,0.047852
		c-0.198242,0-0.351562-0.03125-0.460938-0.09375c-0.108398-0.0625-0.185547-0.144531-0.229492-0.246094
		c-0.044922-0.102539-0.066406-0.316406-0.066406-0.643555v-1.849609h-0.400391V28.52886h0.400391v-0.796875l0.541016-0.326172
		v1.123047h0.548828v0.423828H69.24971v1.879883c0,0.155273,0.009766,0.254883,0.029297,0.299805
		c0.019531,0.043945,0.050781,0.079102,0.09375,0.105469s0.105469,0.040039,0.186523,0.040039
		C69.619827,31.277884,69.698929,31.270071,69.798538,31.256399z"/>
	<path class="st1" d="M70.324905,31.743704V28.52886h0.490234v0.487305c0.125-0.228516,0.241211-0.378906,0.34668-0.451172
		c0.106445-0.072266,0.222656-0.109375,0.349609-0.109375c0.183594,0,0.370117,0.058594,0.55957,0.175781l-0.1875,0.505859
		c-0.132812-0.079102-0.265625-0.118164-0.399414-0.118164c-0.119141,0-0.225586,0.036133-0.320312,0.107422
		s-0.163086,0.170898-0.203125,0.297852c-0.060547,0.194336-0.09082,0.40625-0.09082,0.635742v1.683594H70.324905z"/>
	<path class="st1" d="M72.193069,30.136282c0-0.595703,0.165039-1.036133,0.496094-1.323242
		c0.276367-0.238281,0.613281-0.357422,1.011719-0.357422c0.441406,0,0.802734,0.145508,1.083008,0.43457
		c0.28125,0.290039,0.420898,0.69043,0.420898,1.200195c0,0.414062-0.061523,0.739258-0.185547,0.976562
		s-0.304688,0.421875-0.541992,0.552734s-0.496094,0.196289-0.776367,0.196289c-0.450195,0-0.814453-0.143555-1.091797-0.432617
		C72.331741,31.095266,72.193069,30.679251,72.193069,30.136282z M72.75264,30.136282
		c0,0.412109,0.089844,0.719727,0.269531,0.924805s0.40625,0.307617,0.678711,0.307617
		c0.270508,0,0.495117-0.103516,0.674805-0.30957c0.179688-0.205078,0.269531-0.519531,0.269531-0.941406
		c0-0.397461-0.09082-0.698242-0.271484-0.90332s-0.405273-0.307617-0.672852-0.307617
		c-0.272461,0-0.499023,0.102539-0.678711,0.305664C72.842484,29.416555,72.75264,29.724173,72.75264,30.136282z"/>
	<path class="st1" d="M75.84346,31.743704V28.52886h0.491211v0.457031c0.235352-0.353516,0.577148-0.530273,1.022461-0.530273
		c0.194336,0,0.37207,0.035156,0.535156,0.104492c0.162109,0.070312,0.28418,0.161133,0.364258,0.274414
		c0.081055,0.113281,0.137695,0.24707,0.169922,0.402344c0.019531,0.101562,0.030273,0.277344,0.030273,0.530273v1.976562h-0.544922
		v-1.956055c0-0.22168-0.021484-0.387695-0.063477-0.498047c-0.042969-0.109375-0.118164-0.197266-0.225586-0.262695
		c-0.108398-0.06543-0.235352-0.098633-0.379883-0.098633c-0.232422,0-0.432617,0.073242-0.601562,0.220703
		c-0.167969,0.147461-0.25293,0.426758-0.25293,0.838867v1.755859H75.84346z"/>
	<path class="st1" d="M79.192093,32.010307l0.530273,0.078125c0.021484,0.164062,0.083008,0.283203,0.18457,0.357422
		c0.134766,0.101562,0.319336,0.151367,0.553711,0.151367c0.251953,0,0.447266-0.049805,0.583984-0.151367
		c0.137695-0.100586,0.230469-0.242188,0.279297-0.423828c0.02832-0.110353,0.041016-0.343752,0.039062-0.699221
		c-0.238281,0.280273-0.535156,0.420898-0.889648,0.420898c-0.442383,0-0.78418-0.15918-1.026367-0.478516
		c-0.242188-0.318359-0.363281-0.701172-0.363281-1.147461c0-0.306641,0.054688-0.589844,0.166016-0.848633
		c0.111328-0.259766,0.272461-0.459961,0.483398-0.601562c0.209961-0.140625,0.458008-0.211914,0.743164-0.211914
		c0.378906,0,0.691406,0.15332,0.938477,0.460938V28.52886h0.501953v2.779297c0,0.5-0.050781,0.854494-0.152344,1.063478
		c-0.102539,0.208984-0.263672,0.374023-0.484375,0.495117c-0.22168,0.121094-0.493164,0.181641-0.816406,0.181641
		c-0.382812,0-0.693359-0.085938-0.929688-0.258789C79.298538,32.616753,79.18428,32.356987,79.192093,32.010307z
		 M79.643265,30.078665c0,0.421875,0.083984,0.729492,0.250977,0.922852c0.167969,0.194336,0.37793,0.291016,0.629883,0.291016
		c0.25,0,0.459961-0.09668,0.629883-0.289062s0.253906-0.495117,0.253906-0.90625c0-0.393555-0.086914-0.69043-0.261719-0.890625
		c-0.174805-0.199219-0.384766-0.299805-0.630859-0.299805c-0.242188,0-0.448242,0.098633-0.618164,0.295898
		C79.728226,29.398977,79.643265,29.690969,79.643265,30.078665z"/>
	<path class="st1" d="M33.31221,37.757378l0.554199-0.048828c0.026367,0.222656,0.087402,0.404297,0.183105,0.546875
		s0.244629,0.256836,0.446777,0.344727c0.20166,0.087891,0.428711,0.131836,0.681152,0.131836
		c0.223633,0,0.421387-0.033203,0.593262-0.099609c0.171387-0.066406,0.299316-0.158203,0.382812-0.274414
		c0.083984-0.116211,0.125488-0.242188,0.125488-0.379883c0-0.138672-0.040039-0.260742-0.121094-0.364258
		c-0.080566-0.104492-0.213867-0.191406-0.399414-0.262695c-0.119141-0.045898-0.382324-0.118164-0.790039-0.21582
		s-0.693359-0.19043-0.856934-0.277344c-0.211914-0.110352-0.369629-0.248047-0.473633-0.413086
		c-0.104004-0.164062-0.155762-0.348633-0.155762-0.552734c0-0.223633,0.063477-0.432617,0.19043-0.62793
		c0.127441-0.194336,0.312988-0.342773,0.557129-0.443359s0.515625-0.151367,0.814453-0.151367
		c0.328613,0,0.619141,0.052734,0.870117,0.15918c0.251465,0.105469,0.444824,0.261719,0.580078,0.467773
		c0.134766,0.205078,0.20752,0.438477,0.217773,0.699219l-0.562988,0.041992
		c-0.030273-0.280273-0.132812-0.492188-0.307617-0.635742c-0.174316-0.143555-0.432129-0.214844-0.773438-0.214844
		c-0.35498,0-0.61377,0.06543-0.776367,0.195312s-0.243652,0.287109-0.243652,0.470703
		c0,0.15918,0.057617,0.291016,0.172363,0.393555c0.113281,0.102539,0.408203,0.208008,0.885742,0.316406
		c0.477051,0.108398,0.804688,0.202148,0.982422,0.283203c0.258301,0.119141,0.44873,0.269531,0.572266,0.452148
		c0.123047,0.182617,0.18457,0.393555,0.18457,0.631836c0,0.235352-0.067871,0.458008-0.203125,0.666992
		s-0.329102,0.371094-0.58252,0.487305s-0.538574,0.174805-0.855469,0.174805c-0.401367,0-0.737793-0.058594-1.009277-0.175781
		s-0.484375-0.292969-0.638672-0.52832C33.401566,38.319878,33.320511,38.054253,33.31221,37.757378z"/>
	<path class="st1" d="M39.778519,38.148003l0.563477,0.069336c-0.088867,0.329102-0.253418,0.583984-0.493652,0.765625
		s-0.546875,0.272461-0.92041,0.272461c-0.470215,0-0.842773-0.144531-1.118652-0.433594
		c-0.275391-0.290039-0.413086-0.696289-0.413086-1.21875c0-0.541016,0.13916-0.960938,0.417969-1.259766
		c0.27832-0.298828,0.639648-0.448242,1.083496-0.448242c0.430176,0,0.78125,0.146484,1.053711,0.439453
		s0.408691,0.704102,0.408691,1.235352c0,0.032227-0.000977,0.080078-0.00293,0.144531h-2.397949
		c0.02002,0.353516,0.120117,0.624023,0.299805,0.811523c0.179688,0.188477,0.403809,0.282227,0.671875,0.282227
		c0.200195,0,0.370605-0.052734,0.511719-0.158203C39.583694,38.545464,39.695999,38.377495,39.778519,38.148003z
		 M37.989456,37.267143h1.79541c-0.024414-0.270508-0.092773-0.473633-0.206055-0.608398
		c-0.17334-0.209961-0.398438-0.31543-0.674805-0.31543c-0.250488,0-0.460938,0.083984-0.631348,0.251953
		C38.102249,36.76226,38.007523,36.985893,37.989456,37.267143z"/>
	<path class="st1" d="M40.662796,39.183159l1.174805-1.670898l-1.086914-1.543945h0.681152l0.493164,0.753906
		c0.092773,0.142578,0.16748,0.262695,0.224121,0.360352c0.088867-0.133789,0.17041-0.251953,0.245117-0.354492l0.541992-0.759766
		h0.650879l-1.11084,1.513672l1.195801,1.701172h-0.668945l-0.660156-0.999023l-0.175781-0.269531l-0.844238,1.268555H40.662796z"/>
	<path class="st1" d="M46.233109,39.183159v-0.472656c-0.25,0.363281-0.590332,0.544922-1.02002,0.544922
		c-0.189941,0-0.366699-0.036133-0.53125-0.108398c-0.164551-0.073242-0.286621-0.164062-0.366699-0.274414
		c-0.07959-0.109375-0.135742-0.244141-0.167969-0.404297c-0.021973-0.106445-0.033203-0.276367-0.033203-0.507812v-1.992188
		h0.544922v1.783203c0,0.28418,0.01123,0.475586,0.033203,0.575195c0.034668,0.142578,0.106934,0.255859,0.218262,0.336914
		c0.11084,0.082031,0.248047,0.123047,0.411621,0.123047s0.316895-0.041992,0.459961-0.125977
		c0.143555-0.083008,0.245117-0.197266,0.304688-0.341797c0.059082-0.144531,0.088867-0.353516,0.088867-0.62793v-1.722656h0.544922
		v3.214844H46.233109z"/>
	<path class="st1" d="M49.672562,38.786674c-0.202148,0.171875-0.396484,0.292969-0.583008,0.363281
		s-0.386719,0.105469-0.600586,0.105469c-0.353516,0-0.625-0.085938-0.814453-0.258789
		c-0.189453-0.171875-0.28418-0.392578-0.28418-0.661133c0-0.157227,0.035156-0.300781,0.107422-0.431641
		c0.071289-0.129883,0.165039-0.234375,0.28125-0.313477c0.116211-0.078125,0.24707-0.137695,0.391602-0.178711
		c0.107422-0.027344,0.268555-0.054688,0.484375-0.081055c0.44043-0.052734,0.764648-0.115234,0.972656-0.1875
		c0.001953-0.075195,0.00293-0.12207,0.00293-0.142578c0-0.22168-0.051758-0.378906-0.154297-0.469727
		c-0.139648-0.123047-0.34668-0.18457-0.621094-0.18457c-0.255859,0-0.445312,0.044922-0.567383,0.134766
		s-0.212891,0.249023-0.271484,0.477539l-0.532227-0.073242c0.047852-0.227539,0.12793-0.412109,0.239258-0.552734
		c0.110352-0.139648,0.271484-0.248047,0.481445-0.323242c0.208984-0.076172,0.452148-0.114258,0.729492-0.114258
		c0.274414,0,0.49707,0.032227,0.668945,0.097656c0.170898,0.064453,0.297852,0.145508,0.37793,0.243164
		c0.081055,0.097656,0.137695,0.22168,0.169922,0.371094c0.017578,0.092773,0.027344,0.259766,0.027344,0.501953v0.726562
		c0,0.506836,0.011719,0.827148,0.03418,0.961914c0.023438,0.133789,0.069336,0.262695,0.137695,0.385742h-0.568359
		C49.725296,39.069878,49.689163,38.938042,49.672562,38.786674z M49.62764,37.569878
		c-0.198242,0.080078-0.495117,0.149414-0.890625,0.205078c-0.223633,0.033203-0.382812,0.069336-0.475586,0.109375
		s-0.164062,0.099609-0.214844,0.176758c-0.049805,0.078125-0.075195,0.164062-0.075195,0.258789
		c0,0.145508,0.054688,0.266602,0.165039,0.364258c0.109375,0.09668,0.270508,0.144531,0.482422,0.144531
		c0.209961,0,0.396484-0.045898,0.560547-0.137695c0.163086-0.091797,0.283203-0.216797,0.360352-0.376953
		c0.058594-0.123047,0.087891-0.304688,0.087891-0.544922V37.569878z"/>
	<path class="st1" d="M51.010452,39.183159v-4.438477h0.544922v4.438477H51.010452z"/>
	<path class="st1" d="M57.359085,37.627495l0.586914,0.147461c-0.123047,0.482422-0.344727,0.850586-0.664062,1.103516
		c-0.320312,0.253906-0.710938,0.380859-1.173828,0.380859c-0.477539,0-0.867188-0.097656-1.166992-0.292969
		c-0.299805-0.194336-0.527344-0.476562-0.683594-0.845703s-0.235352-0.765625-0.235352-1.189453
		c0-0.462891,0.088867-0.865234,0.265625-1.209961c0.176758-0.34375,0.427734-0.605469,0.753906-0.78418
		c0.325195-0.178711,0.68457-0.267578,1.076172-0.267578c0.443359,0,0.817383,0.113281,1.120117,0.338867
		c0.302734,0.226562,0.513672,0.543945,0.632812,0.954102l-0.579102,0.135742
		c-0.102539-0.323242-0.251953-0.557617-0.447266-0.705078c-0.196289-0.147461-0.442383-0.22168-0.739258-0.22168
		c-0.34082,0-0.625977,0.082031-0.855469,0.246094c-0.228516,0.163086-0.389648,0.382812-0.482422,0.658203
		s-0.139648,0.55957-0.139648,0.851562c0,0.37793,0.055664,0.707031,0.165039,0.989258
		c0.110352,0.28125,0.28125,0.491211,0.513672,0.630859c0.231445,0.139648,0.483398,0.208984,0.753906,0.208984
		c0.329102,0,0.607422-0.094727,0.834961-0.28418C57.123734,38.281792,57.27803,38.000542,57.359085,37.627495z"/>
	<path class="st1" d="M58.397171,37.575737c0-0.595703,0.165039-1.036133,0.496094-1.323242
		c0.277344-0.238281,0.614258-0.357422,1.011719-0.357422c0.441406,0,0.802734,0.145508,1.083984,0.43457
		c0.280273,0.290039,0.420898,0.69043,0.420898,1.200195c0,0.414062-0.0625,0.739258-0.186523,0.976562
		s-0.304688,0.421875-0.541992,0.552734s-0.496094,0.196289-0.776367,0.196289c-0.450195,0-0.814453-0.143555-1.091797-0.432617
		C58.535843,38.534721,58.397171,38.118706,58.397171,37.575737z M58.957718,37.575737
		c0,0.412109,0.088867,0.719727,0.268555,0.924805s0.40625,0.307617,0.678711,0.307617
		c0.270508,0,0.495117-0.103516,0.674805-0.30957c0.179688-0.205078,0.269531-0.519531,0.269531-0.941406
		c0-0.397461-0.089844-0.698242-0.270508-0.90332s-0.405273-0.307617-0.673828-0.307617
		c-0.272461,0-0.499023,0.102539-0.678711,0.305664C59.046585,36.85601,58.957718,37.163628,58.957718,37.575737z"/>
	<path class="st1" d="M62.048538,39.183159v-3.214844h0.490234v0.457031c0.236328-0.353516,0.577148-0.530273,1.023438-0.530273
		c0.193359,0,0.37207,0.035156,0.53418,0.104492c0.162109,0.070312,0.28418,0.161133,0.364258,0.274414
		c0.081055,0.113281,0.137695,0.24707,0.169922,0.402344c0.020508,0.101562,0.030273,0.277344,0.030273,0.530273v1.976562h-0.544922
		v-1.956055c0-0.22168-0.021484-0.387695-0.063477-0.498047c-0.041992-0.109375-0.117188-0.197266-0.225586-0.262695
		s-0.234375-0.098633-0.379883-0.098633c-0.232422,0-0.432617,0.073242-0.600586,0.220703
		c-0.168945,0.147461-0.25293,0.426758-0.25293,0.838867v1.755859H62.048538z"/>
	<path class="st1" d="M66.686234,38.695854l0.079102,0.481445c-0.15332,0.032227-0.291016,0.047852-0.412109,0.047852
		c-0.198242,0-0.351562-0.03125-0.459961-0.09375c-0.109375-0.0625-0.185547-0.144531-0.230469-0.246094
		c-0.043945-0.102539-0.066406-0.316406-0.066406-0.643555v-1.849609h-0.399414v-0.423828h0.399414V35.17144l0.541992-0.326172
		v1.123047h0.547852v0.423828h-0.547852v1.879883c0,0.155273,0.009766,0.254883,0.02832,0.299805
		c0.019531,0.043945,0.050781,0.079102,0.09375,0.105469c0.043945,0.026367,0.105469,0.040039,0.186523,0.040039
		C66.507523,38.717339,66.587601,38.709526,66.686234,38.695854z"/>
	<path class="st1" d="M69.419632,38.148003l0.563477,0.069336c-0.088867,0.329102-0.253906,0.583984-0.494141,0.765625
		s-0.546875,0.272461-0.919922,0.272461c-0.470703,0-0.842773-0.144531-1.119141-0.433594
		c-0.275391-0.290039-0.413086-0.696289-0.413086-1.21875c0-0.541016,0.139648-0.960938,0.417969-1.259766
		s0.639648-0.448242,1.083984-0.448242c0.429688,0,0.78125,0.146484,1.053711,0.439453s0.408203,0.704102,0.408203,1.235352
		c0,0.032227-0.000977,0.080078-0.00293,0.144531h-2.397461c0.019531,0.353516,0.120117,0.624023,0.299805,0.811523
		c0.179688,0.188477,0.40332,0.282227,0.671875,0.282227c0.200195,0,0.370117-0.052734,0.511719-0.158203
		C69.224319,38.545464,69.336624,38.377495,69.419632,38.148003z M67.630569,37.267143h1.794922
		c-0.024414-0.270508-0.092773-0.473633-0.206055-0.608398c-0.172852-0.209961-0.398438-0.31543-0.674805-0.31543
		c-0.25,0-0.460938,0.083984-0.630859,0.251953C67.742874,36.76226,67.648148,36.985893,67.630569,37.267143z"/>
	<path class="st1" d="M70.666702,39.183159v-3.214844h0.490234v0.457031c0.236328-0.353516,0.577148-0.530273,1.023438-0.530273
		c0.193359,0,0.371094,0.035156,0.535156,0.104492c0.162109,0.070312,0.283203,0.161133,0.363281,0.274414
		c0.082031,0.113281,0.138672,0.24707,0.169922,0.402344c0.019531,0.101562,0.03125,0.277344,0.03125,0.530273v1.976562h-0.544922
		v-1.956055c0-0.22168-0.021484-0.387695-0.064453-0.498047c-0.042969-0.109375-0.117188-0.197266-0.224609-0.262695
		c-0.109375-0.06543-0.235352-0.098633-0.380859-0.098633c-0.232422,0-0.431641,0.073242-0.600586,0.220703
		c-0.167969,0.147461-0.25293,0.426758-0.25293,0.838867v1.755859H70.666702z"/>
	<path class="st1" d="M75.304398,38.695854l0.078125,0.481445c-0.15332,0.032227-0.290039,0.047852-0.411133,0.047852
		c-0.198242,0-0.351562-0.03125-0.459961-0.09375c-0.109375-0.0625-0.186523-0.144531-0.230469-0.246094
		c-0.043945-0.102539-0.066406-0.316406-0.066406-0.643555v-1.849609H73.81514v-0.423828h0.399414V35.17144l0.541992-0.326172
		v1.123047h0.547852v0.423828h-0.547852v1.879883c0,0.155273,0.008789,0.254883,0.02832,0.299805
		c0.019531,0.043945,0.050781,0.079102,0.09375,0.105469c0.043945,0.026367,0.105469,0.040039,0.186523,0.040039
		C75.125687,38.717339,75.205765,38.709526,75.304398,38.695854z"/>
</g>
</svg>
